<mxfile host="65bd71144e">
    <diagram id="4_InaBaEAxknRIDOwa9_" name="Page-1">
        <mxGraphModel dx="894" dy="561" grid="1" gridSize="10" guides="1" tooltips="1" connect="1" arrows="1" fold="1" page="1" pageScale="1" pageWidth="827" pageHeight="1169" math="0" shadow="0">
            <root>
                <mxCell id="0"/>
                <mxCell id="1" parent="0"/>
                <mxCell id="3" value="" style="pointerEvents=1;verticalLabelPosition=bottom;shadow=0;dashed=0;align=center;html=1;verticalAlign=top;shape=mxgraph.electrical.resistors.resistor_1;rotation=-180;" parent="1" vertex="1">
                    <mxGeometry x="840" y="110" width="100" height="20" as="geometry"/>
                </mxCell>
                <mxCell id="37" style="edgeStyle=orthogonalEdgeStyle;html=1;exitX=1;exitY=0.5;exitDx=0;exitDy=0;endArrow=none;endFill=0;entryX=0;entryY=0.5;entryDx=0;entryDy=0;entryPerimeter=0;" edge="1" parent="1" source="5" target="3">
                    <mxGeometry relative="1" as="geometry">
                        <mxPoint x="740" y="370" as="targetPoint"/>
                        <Array as="points">
                            <mxPoint x="150" y="280"/>
                            <mxPoint x="950" y="280"/>
                            <mxPoint x="950" y="120"/>
                        </Array>
                    </mxGeometry>
                </mxCell>
                <mxCell id="5" value="" style="pointerEvents=1;verticalLabelPosition=bottom;shadow=0;dashed=0;align=center;html=1;verticalAlign=top;shape=mxgraph.electrical.miscellaneous.batteryStack;rotation=90;" parent="1" vertex="1">
                    <mxGeometry x="100" y="160" width="100" height="60" as="geometry"/>
                </mxCell>
                <mxCell id="28" style="edgeStyle=orthogonalEdgeStyle;html=1;exitX=1;exitY=0.57;exitDx=0;exitDy=0;exitPerimeter=0;entryX=0;entryY=0.5;entryDx=0;entryDy=0;endArrow=none;endFill=0;" edge="1" parent="1" source="7" target="5">
                    <mxGeometry relative="1" as="geometry"/>
                </mxCell>
                <mxCell id="29" style="edgeStyle=orthogonalEdgeStyle;html=1;exitX=0;exitY=0.57;exitDx=0;exitDy=0;exitPerimeter=0;entryX=1;entryY=0.5;entryDx=0;entryDy=0;entryPerimeter=0;endArrow=none;endFill=0;" edge="1" parent="1" source="7" target="3">
                    <mxGeometry relative="1" as="geometry"/>
                </mxCell>
                <mxCell id="7" value="" style="verticalLabelPosition=bottom;shadow=0;dashed=0;align=center;html=1;verticalAlign=top;shape=mxgraph.electrical.opto_electronics.led_2;pointerEvents=1;rotation=-180;" parent="1" vertex="1">
                    <mxGeometry x="710" y="90" width="100" height="70" as="geometry"/>
                </mxCell>
                <mxCell id="8" value="5 V" style="text;html=1;align=center;verticalAlign=middle;resizable=0;points=[];autosize=1;strokeColor=none;fillColor=none;fontSize=11;fontFamily=Helvetica;fontColor=default;" parent="1" vertex="1">
                    <mxGeometry x="80" y="180" width="30" height="20" as="geometry"/>
                </mxCell>
                <mxCell id="9" value="220&amp;nbsp;Ω" style="text;html=1;align=center;verticalAlign=middle;resizable=0;points=[];autosize=1;strokeColor=none;fillColor=none;fontSize=11;fontFamily=Helvetica;fontColor=default;" parent="1" vertex="1">
                    <mxGeometry x="870" y="170" width="40" height="20" as="geometry"/>
                </mxCell>
                <mxCell id="10" value="LED 1" style="text;html=1;align=center;verticalAlign=middle;resizable=0;points=[];autosize=1;strokeColor=none;fillColor=none;fontSize=11;fontFamily=Helvetica;fontColor=default;" parent="1" vertex="1">
                    <mxGeometry x="735" y="170" width="50" height="20" as="geometry"/>
                </mxCell>
                <mxCell id="11" value="Daria Bernice Calitis&lt;br&gt;TEJ3M&lt;br&gt;Unit4-07" style="text;html=1;align=center;verticalAlign=middle;resizable=0;points=[];autosize=1;strokeColor=none;fillColor=none;fontSize=11;fontFamily=Helvetica;fontColor=default;" parent="1" vertex="1">
                    <mxGeometry x="110" y="55" width="110" height="40" as="geometry"/>
                </mxCell>
                <mxCell id="12" value="NOT gate with Transistor" style="text;html=1;align=center;verticalAlign=middle;resizable=0;points=[];autosize=1;strokeColor=none;fillColor=none;" parent="1" vertex="1">
                    <mxGeometry x="457.05" y="50" width="150" height="20" as="geometry"/>
                </mxCell>
                <mxCell id="13" style="edgeStyle=orthogonalEdgeStyle;html=1;exitX=1;exitY=0.885;exitDx=0;exitDy=0;exitPerimeter=0;entryX=0;entryY=0.5;entryDx=0;entryDy=0;endArrow=none;endFill=0;" parent="1" source="14" target="5" edge="1">
                    <mxGeometry relative="1" as="geometry">
                        <Array as="points">
                            <mxPoint x="320" y="220"/>
                            <mxPoint x="230" y="220"/>
                            <mxPoint x="230" y="140"/>
                        </Array>
                    </mxGeometry>
                </mxCell>
                <mxCell id="39" style="edgeStyle=orthogonalEdgeStyle;html=1;exitX=1;exitY=0.115;exitDx=0;exitDy=0;exitPerimeter=0;endArrow=none;endFill=0;" edge="1" parent="1" source="14">
                    <mxGeometry relative="1" as="geometry">
                        <mxPoint x="160" y="280" as="targetPoint"/>
                        <Array as="points">
                            <mxPoint x="300" y="240"/>
                            <mxPoint x="300" y="280"/>
                        </Array>
                    </mxGeometry>
                </mxCell>
                <mxCell id="14" value="" style="pointerEvents=1;verticalLabelPosition=bottom;shadow=0;dashed=0;align=center;html=1;verticalAlign=top;shape=mxgraph.electrical.electro-mechanical.2-way_switch;rotation=-180;" parent="1" vertex="1">
                    <mxGeometry x="320" y="217" width="75" height="26" as="geometry"/>
                </mxCell>
                <mxCell id="15" value="NOT Gate Truth Table&lt;br&gt;&lt;br&gt;Input A | Output&lt;br&gt;----------------------&lt;br&gt;&amp;nbsp; &amp;nbsp; &amp;nbsp;1&amp;nbsp; &amp;nbsp; &amp;nbsp;|&amp;nbsp; &amp;nbsp; &amp;nbsp; 0&lt;br&gt;&amp;nbsp; &amp;nbsp; &amp;nbsp;0&amp;nbsp; &amp;nbsp; &amp;nbsp;|&amp;nbsp; &amp;nbsp; &amp;nbsp; 1" style="whiteSpace=wrap;html=1;align=left;" parent="1" vertex="1">
                    <mxGeometry x="225" y="380" width="150" height="100" as="geometry"/>
                </mxCell>
                <mxCell id="40" style="edgeStyle=orthogonalEdgeStyle;html=1;exitX=0;exitY=0.5;exitDx=0;exitDy=0;exitPerimeter=0;entryX=0;entryY=0.885;entryDx=0;entryDy=0;entryPerimeter=0;endArrow=none;endFill=0;" edge="1" parent="1" source="21" target="14">
                    <mxGeometry relative="1" as="geometry"/>
                </mxCell>
                <mxCell id="42" style="edgeStyle=orthogonalEdgeStyle;html=1;exitX=1;exitY=0.5;exitDx=0;exitDy=0;exitPerimeter=0;endArrow=none;endFill=0;" edge="1" parent="1" source="21" target="41">
                    <mxGeometry relative="1" as="geometry"/>
                </mxCell>
                <mxCell id="21" value="" style="pointerEvents=1;verticalLabelPosition=bottom;shadow=0;dashed=0;align=center;html=1;verticalAlign=top;shape=mxgraph.electrical.resistors.resistor_1;" parent="1" vertex="1">
                    <mxGeometry x="450" y="210" width="100" height="20" as="geometry"/>
                </mxCell>
                <mxCell id="22" value="4.7 K Ω" style="text;html=1;align=center;verticalAlign=middle;resizable=0;points=[];autosize=1;strokeColor=none;fillColor=none;fontSize=11;fontFamily=Helvetica;fontColor=default;" parent="1" vertex="1">
                    <mxGeometry x="475" y="180" width="50" height="20" as="geometry"/>
                </mxCell>
                <mxCell id="23" value="+" style="text;html=1;align=center;verticalAlign=middle;resizable=0;points=[];autosize=1;strokeColor=none;fillColor=none;" parent="1" vertex="1">
                    <mxGeometry x="90" y="220" width="20" height="20" as="geometry"/>
                </mxCell>
                <mxCell id="24" value="-" style="text;html=1;align=center;verticalAlign=middle;resizable=0;points=[];autosize=1;strokeColor=none;fillColor=none;" parent="1" vertex="1">
                    <mxGeometry x="90" y="130" width="20" height="20" as="geometry"/>
                </mxCell>
                <mxCell id="25" value="NPN Transistor" style="text;html=1;align=center;verticalAlign=middle;resizable=0;points=[];autosize=1;strokeColor=none;fillColor=none;" parent="1" vertex="1">
                    <mxGeometry x="697.95" y="243" width="100" height="20" as="geometry"/>
                </mxCell>
                <mxCell id="43" style="edgeStyle=orthogonalEdgeStyle;html=1;exitX=0.7;exitY=1;exitDx=0;exitDy=0;exitPerimeter=0;endArrow=none;endFill=0;" edge="1" parent="1" source="41">
                    <mxGeometry relative="1" as="geometry">
                        <mxPoint x="250" y="120" as="targetPoint"/>
                        <Array as="points">
                            <mxPoint x="671" y="120"/>
                            <mxPoint x="250" y="120"/>
                        </Array>
                    </mxGeometry>
                </mxCell>
                <mxCell id="44" style="edgeStyle=orthogonalEdgeStyle;html=1;exitX=0.7;exitY=0;exitDx=0;exitDy=0;exitPerimeter=0;endArrow=none;endFill=0;" edge="1" parent="1" source="41">
                    <mxGeometry relative="1" as="geometry">
                        <mxPoint x="740" y="280" as="targetPoint"/>
                        <Array as="points">
                            <mxPoint x="671" y="280"/>
                            <mxPoint x="740" y="280"/>
                        </Array>
                    </mxGeometry>
                </mxCell>
                <mxCell id="41" value="" style="verticalLabelPosition=bottom;shadow=0;dashed=0;align=center;html=1;verticalAlign=top;shape=mxgraph.electrical.transistors.npn_transistor_1;comic=0;flipV=1;" vertex="1" parent="1">
                    <mxGeometry x="605" y="170" width="95" height="100" as="geometry"/>
                </mxCell>
            </root>
        </mxGraphModel>
    </diagram>
</mxfile>